<svg class="h-8 fill-primary lg:h-11" viewBox="0 0 100 86" fill="none" xmlns="http://www.w3.org/2000/svg"><path d="M48.75 3.35415C49.1443 3.18208 49.5698 3.09326 50 3.09326C50.4302 3.09326 50.8557 3.18208 51.25 3.35415C66.6586 10.0892 81.3564 18.3454 95.125 28C95.6102 28.3403 95.9887 28.8115 96.2162 29.3587C96.4438 29.9059 96.511 30.5066 96.4101 31.0906C96.3092 31.6746 96.0443 32.2178 95.6464 32.657C95.2484 33.0961 94.7338 33.4131 94.1625 33.5708C79.8683 37.5187 66.0369 42.9831 52.9042 49.8708L52.8917 49.8791L51.475 50.6291C51.0218 50.8713 50.5159 50.998 50.0021 50.998C49.4882 50.998 48.9823 50.8713 48.5292 50.6291C42.8987 47.6201 37.1329 44.8713 31.25 42.3917V41.4583C31.25 40.9125 31.5292 40.425 31.9667 40.1625C38.2557 36.3513 44.7258 32.8472 51.3542 29.6625C52.1012 29.3033 52.675 28.6621 52.9492 27.88C53.2235 27.0978 53.1758 26.2387 52.8167 25.4917C52.4575 24.7446 51.8163 24.1709 51.0341 23.8966C50.252 23.6223 49.3929 23.67 48.6458 24.0292C41.8366 27.3012 35.1899 30.9012 28.7292 34.8167C27.81 35.3743 27.0171 36.1172 26.4008 36.9981C25.7846 37.8791 25.3586 38.8787 25.15 39.9333C18.8217 37.4983 12.3779 35.3749 5.84167 33.5708C5.2704 33.4131 4.75576 33.0961 4.3578 32.657C3.95984 32.2178 3.69496 31.6746 3.59406 31.0906C3.49316 30.5066 3.5604 29.9059 3.78794 29.3587C4.01549 28.8115 4.39394 28.3403 4.87917 28C18.6464 18.3457 33.3429 10.0895 48.75 3.35415Z" fill="#EE4D2D"></path><path d="M54.4167 56.1375C64.6511 50.6697 75.3379 46.0944 86.3583 42.4625C86.9167 48.3542 87.275 54.3083 87.4208 60.3167C87.4361 60.9454 87.2614 61.5641 86.9194 62.0919C86.5775 62.6197 86.0842 63.032 85.5042 63.275C73.6929 68.2082 62.3838 74.2667 51.7333 81.3667C51.22 81.7089 50.6169 81.8915 50 81.8915C49.3831 81.8915 48.78 81.7089 48.2667 81.3667C37.6175 74.2669 26.3099 68.2084 14.5 63.275C13.9192 63.0327 13.425 62.6206 13.0823 62.0928C12.7396 61.5649 12.5642 60.9459 12.5792 60.3167C12.725 54.3083 13.0833 48.3583 13.6417 42.4583C17.4681 43.7196 21.2559 45.0952 25 46.5833V51.875C24.0997 52.3937 23.343 53.1287 22.7982 54.0134C22.2534 54.8981 21.9378 55.9047 21.8799 56.9421C21.822 57.9795 22.0236 59.015 22.4665 59.9549C22.9095 60.8947 23.5797 61.7093 24.4167 62.325C24.0417 63.9083 23.4917 65.4625 22.7625 66.95C24.6458 67.8375 26.5167 68.7583 28.3708 69.7042C29.4162 67.5769 30.1877 65.3256 30.6667 63.0042C31.7203 62.5357 32.6239 61.7848 33.2773 60.8346C33.9307 59.8845 34.3085 58.7721 34.3689 57.6205C34.4292 56.4689 34.1699 55.3231 33.6194 54.3098C33.069 53.2965 32.2489 52.4553 31.25 51.8792V49.1917C36.1172 51.3193 40.8987 53.6377 45.5833 56.1417C46.9423 56.8675 48.4593 57.2472 50 57.2472C51.5407 57.2472 53.0576 56.8675 54.4167 56.1417V56.1375Z" fill="#EE4D2D"></path><path d="M18.5917 72.7583C20.3417 71.0125 21.7292 69.05 22.7583 66.95C24.6458 67.8375 26.5167 68.7583 28.3708 69.7042C27.0074 72.4733 25.1971 74.9988 23.0125 77.1792C22.7264 77.4862 22.3814 77.7325 21.9981 77.9033C21.6148 78.0741 21.2009 78.1659 20.7814 78.1733C20.3618 78.1807 19.945 78.1035 19.5559 77.9464C19.1667 77.7892 18.8133 77.5552 18.5165 77.2585C18.2198 76.9618 17.9858 76.6083 17.8287 76.2192C17.6715 75.83 17.5943 75.4133 17.6017 74.9937C17.6091 74.5741 17.701 74.1603 17.8718 73.7769C18.0426 73.3936 18.2888 73.0486 18.5958 72.7625L18.5917 72.7583Z" fill="#EE4D2D"></path></svg>